<mxfile host="app.diagrams.net" modified="2023-11-29T04:59:09.610Z" agent="Mozilla/5.0 (Windows NT 10.0; Win64; x64) AppleWebKit/537.36 (KHTML, like Gecko) Chrome/114.0.0.0 Safari/537.36" etag="Va-LWiFa1F22KKtPvS3i" version="22.1.4" type="github">
  <diagram id="piCVT0GnAEzMvJrsj3AD" name="Page-1">
    <mxGraphModel dx="3088" dy="1965" grid="1" gridSize="10" guides="1" tooltips="1" connect="1" arrows="1" fold="1" page="1" pageScale="1" pageWidth="827" pageHeight="1169" math="0" shadow="0">
      <root>
        <mxCell id="0" />
        <mxCell id="1" parent="0" />
        <mxCell id="kPjU0U6EXAjWoEkIdYuT-12" value="" style="rounded=0;whiteSpace=wrap;html=1;strokeWidth=2;fillColor=#dae8fc;strokeColor=#6c8ebf;fontFamily=Comic Sans MS;" parent="1" vertex="1">
          <mxGeometry x="-770" y="-240" width="460" height="80" as="geometry" />
        </mxCell>
        <mxCell id="kPjU0U6EXAjWoEkIdYuT-10" value="" style="shape=actor;whiteSpace=wrap;html=1;fontFamily=Helvetica;fontSize=16;" parent="1" vertex="1">
          <mxGeometry x="-570" y="-230" width="40" height="60" as="geometry" />
        </mxCell>
        <mxCell id="kPjU0U6EXAjWoEkIdYuT-13" value="&lt;span style=&quot;font-size: 17px&quot;&gt;敦&lt;br&gt;煌&lt;/span&gt;" style="rounded=0;whiteSpace=wrap;html=1;strokeWidth=2;fillColor=#dae8fc;strokeColor=#6c8ebf;fontFamily=Comic Sans MS;" parent="1" vertex="1">
          <mxGeometry x="-770" y="-240" width="50" height="80" as="geometry" />
        </mxCell>
        <mxCell id="kPjU0U6EXAjWoEkIdYuT-14" value="" style="shape=singleArrow;direction=south;whiteSpace=wrap;html=1;fontFamily=Helvetica;fontSize=16;" parent="1" vertex="1">
          <mxGeometry x="-580" y="-150" width="60" height="60" as="geometry" />
        </mxCell>
        <mxCell id="kPjU0U6EXAjWoEkIdYuT-23" value="" style="rounded=0;whiteSpace=wrap;html=1;fontFamily=Helvetica;fontSize=16;dashed=1;fillColor=#fff2cc;strokeColor=#d6b656;" parent="1" vertex="1">
          <mxGeometry x="-1010" y="-70" width="990" height="720" as="geometry" />
        </mxCell>
        <mxCell id="kPjU0U6EXAjWoEkIdYuT-24" value="" style="group" parent="1" vertex="1" connectable="0">
          <mxGeometry x="-800" y="-10" width="460" height="420" as="geometry" />
        </mxCell>
        <mxCell id="3zW76zUc4abTS6v-kVaw-1" value="" style="rounded=0;whiteSpace=wrap;html=1;strokeWidth=2;fillColor=#dae8fc;strokeColor=#6c8ebf;fontFamily=Comic Sans MS;" parent="kPjU0U6EXAjWoEkIdYuT-24" vertex="1">
          <mxGeometry y="170" width="460" height="80" as="geometry" />
        </mxCell>
        <mxCell id="3zW76zUc4abTS6v-kVaw-2" value="&lt;font style=&quot;font-size: 19px&quot;&gt;接&lt;br&gt;入&lt;br&gt;层&lt;br&gt;&lt;/font&gt;" style="rounded=0;whiteSpace=wrap;html=1;strokeWidth=2;fillColor=#dae8fc;strokeColor=#6c8ebf;fontFamily=Comic Sans MS;" parent="kPjU0U6EXAjWoEkIdYuT-24" vertex="1">
          <mxGeometry y="170" width="50" height="80" as="geometry" />
        </mxCell>
        <mxCell id="3zW76zUc4abTS6v-kVaw-3" value="fpx-xms-wish-receiver" style="rounded=1;whiteSpace=wrap;html=1;strokeWidth=2;fontFamily=Helvetica;fontSize=16;" parent="kPjU0U6EXAjWoEkIdYuT-24" vertex="1">
          <mxGeometry x="125" y="180" width="210" height="60" as="geometry" />
        </mxCell>
        <mxCell id="3zW76zUc4abTS6v-kVaw-7" value="" style="rounded=0;whiteSpace=wrap;html=1;strokeWidth=2;fillColor=#dae8fc;strokeColor=#6c8ebf;fontFamily=Comic Sans MS;" parent="kPjU0U6EXAjWoEkIdYuT-24" vertex="1">
          <mxGeometry y="340" width="460" height="80" as="geometry" />
        </mxCell>
        <mxCell id="3zW76zUc4abTS6v-kVaw-8" value="&lt;font style=&quot;font-size: 15px&quot;&gt;业&lt;br&gt;务&lt;br&gt;层&lt;br&gt;&lt;/font&gt;" style="rounded=0;whiteSpace=wrap;html=1;strokeWidth=2;fillColor=#dae8fc;strokeColor=#6c8ebf;fontFamily=Comic Sans MS;" parent="kPjU0U6EXAjWoEkIdYuT-24" vertex="1">
          <mxGeometry y="340" width="50" height="80" as="geometry" />
        </mxCell>
        <mxCell id="3zW76zUc4abTS6v-kVaw-68" value="" style="rounded=0;whiteSpace=wrap;html=1;strokeWidth=2;fillColor=#d5e8d4;strokeColor=#82b366;fontFamily=Comic Sans MS;" parent="kPjU0U6EXAjWoEkIdYuT-24" vertex="1">
          <mxGeometry width="460" height="80" as="geometry" />
        </mxCell>
        <mxCell id="3zW76zUc4abTS6v-kVaw-69" value="Nginx" style="rounded=1;whiteSpace=wrap;html=1;strokeWidth=2;fontFamily=Helvetica;fontSize=16;" parent="kPjU0U6EXAjWoEkIdYuT-24" vertex="1">
          <mxGeometry x="170" y="10" width="120" height="60" as="geometry" />
        </mxCell>
        <mxCell id="3zW76zUc4abTS6v-kVaw-70" value="&lt;span style=&quot;font-size: 17px&quot;&gt;网关&lt;/span&gt;" style="rounded=0;whiteSpace=wrap;html=1;strokeWidth=2;fillColor=#d5e8d4;strokeColor=#82b366;fontFamily=Comic Sans MS;" parent="kPjU0U6EXAjWoEkIdYuT-24" vertex="1">
          <mxGeometry width="50" height="80" as="geometry" />
        </mxCell>
        <mxCell id="kPjU0U6EXAjWoEkIdYuT-5" value="fpx-api-reciever" style="rounded=1;whiteSpace=wrap;html=1;strokeWidth=2;fontFamily=Helvetica;fontSize=16;" parent="kPjU0U6EXAjWoEkIdYuT-24" vertex="1">
          <mxGeometry x="80" y="350" width="180" height="60" as="geometry" />
        </mxCell>
        <mxCell id="kPjU0U6EXAjWoEkIdYuT-15" value="" style="shape=singleArrow;direction=south;whiteSpace=wrap;html=1;fontFamily=Helvetica;fontSize=16;" parent="kPjU0U6EXAjWoEkIdYuT-24" vertex="1">
          <mxGeometry x="190" y="90" width="60" height="60" as="geometry" />
        </mxCell>
        <mxCell id="kPjU0U6EXAjWoEkIdYuT-20" value="" style="shape=singleArrow;direction=south;whiteSpace=wrap;html=1;fontFamily=Helvetica;fontSize=16;" parent="kPjU0U6EXAjWoEkIdYuT-24" vertex="1">
          <mxGeometry x="180" y="260" width="60" height="60" as="geometry" />
        </mxCell>
        <mxCell id="ojBkOqh7XkBdngWomWC0-36" value="。。。" style="rounded=1;whiteSpace=wrap;html=1;strokeWidth=2;" parent="kPjU0U6EXAjWoEkIdYuT-24" vertex="1">
          <mxGeometry x="290" y="350" width="120" height="60" as="geometry" />
        </mxCell>
        <mxCell id="kPjU0U6EXAjWoEkIdYuT-25" value="4px平台" style="rounded=0;whiteSpace=wrap;html=1;dashed=1;fontFamily=Helvetica;fontSize=16;strokeColor=none;fillColor=#fff2cc;" parent="1" vertex="1">
          <mxGeometry x="-1010" y="-70" width="100" height="50" as="geometry" />
        </mxCell>
        <mxCell id="kPjU0U6EXAjWoEkIdYuT-26" value="" style="rounded=0;whiteSpace=wrap;html=1;dashed=1;fontFamily=Helvetica;fontSize=16;strokeColor=#b85450;fillColor=#f8cecc;" parent="1" vertex="1">
          <mxGeometry x="-225" y="-30" width="120" height="660" as="geometry" />
        </mxCell>
        <mxCell id="kPjU0U6EXAjWoEkIdYuT-28" value="K8S集群" style="rounded=0;whiteSpace=wrap;html=1;dashed=1;fontFamily=Helvetica;fontSize=16;strokeColor=none;fillColor=#f8cecc;fontColor=#FFFFFF;" parent="1" vertex="1">
          <mxGeometry x="-200" y="60" width="70" height="20" as="geometry" />
        </mxCell>
        <mxCell id="kPjU0U6EXAjWoEkIdYuT-30" value="arms" style="rounded=0;whiteSpace=wrap;html=1;dashed=1;fontFamily=Helvetica;fontSize=16;strokeColor=none;fillColor=#f8cecc;fontColor=#FFFFFF;" parent="1" vertex="1">
          <mxGeometry x="-200" y="160" width="70" height="20" as="geometry" />
        </mxCell>
        <mxCell id="ojBkOqh7XkBdngWomWC0-1" value="" style="shape=image;verticalLabelPosition=bottom;labelBackgroundColor=default;verticalAlign=top;aspect=fixed;imageAspect=0;image=data:image/svg+xml,PHN2ZyB4bWxucz0iaHR0cDovL3d3dy53My5vcmcvMjAwMC9zdmciIHhtbG5zOnhsaW5rPSJodHRwOi8vd3d3LnczLm9yZy8xOTk5L3hsaW5rIiB0PSIxNzAxMjI3NDU5NTk5IiBjbGFzcz0iaWNvbiIgdmlld0JveD0iMCAwIDEwMjQgMTAyNCIgdmVyc2lvbj0iMS4xIiBwLWlkPSI0MzgzIiB3aWR0aD0iMjAwIiBoZWlnaHQ9IjIwMCI+PHBhdGggZD0iTTg3My40NzIgMjc3LjUwNGMtNTkuOTA0IDAtMTA4LjU0NCA0OC42NC0xMDguNTQ0IDEwOC41NDQgMCAxNy45MiA0LjYwOCAzNS4zMjggMTIuMjg4IDUwLjE3NmwtMTc2LjY0IDE3NC41OTJjLTkuNzI4LTUuNjMyLTIwLjQ4LTguMTkyLTMxLjIzMi04LjE5Mi03LjE2OCAwLTEzLjgyNCAxLjUzNi0xOS45NjggMy41ODRsLTcxLjE2OC05Ny4yOGMwLjUxMi0zLjU4NCAwLjUxMi02LjY1NiAwLjUxMi0xMC4yNCAwLTM1LjMyOC0yOC42NzItNjQtNjQtNjRzLTY0LjUxMiAyOC42NzItNjQuNTEyIDY0djEuMDI0TDI0Ny4yOTYgNTk5LjA0SDE2Mi4zMDRjLTExLjc3Ni0xOC45NDQtMzIuMjU2LTMwLjcyLTU0Ljc4NC0zMS4yMzItMzUuODQgMC02NC41MTIgMjkuMTg0LTY0LjUxMiA2NC41MTIgMCAzNS44NCAyOS4xODQgNjQuNTEyIDY0LjUxMiA2NC41MTIgMjMuNTUyIDAgNDUuMDU2LTEyLjggNTYuODMyLTMzLjI4aDExMC41OTJsMTExLjYxNi0xMDguNTQ0YzkuMjE2IDQuNjA4IDE4Ljk0NCA3LjE2OCAyOS42OTYgNy4xNjggNy4xNjggMCAxNC4zMzYtMS41MzYgMjAuNDgtMy41ODRMNTA2Ljg4IDY1NS4zNmMtMC41MTIgMy41ODQtMS4wMjQgNy4xNjgtMS4wMjQgMTEuMjY0IDAgMzUuMzI4IDI4LjY3MiA2NCA2NCA2NCAzNC44MTYgMCA2My40ODgtMjcuNjQ4IDY0LTYyLjQ2NEw4MjIuMjcyIDQ4MS4yOGM1Mi43MzYgMjguMTYgMTE4LjI3MiA4LjE5MiAxNDYuNDMyLTQ1LjA1NiA4LjE5Mi0xNS44NzIgMTIuOC0zMy4yOCAxMi44LTUwLjY4OCAwLTU5LjM5Mi00OC4xMjgtMTA4LjAzMi0xMDguMDMyLTEwOC4wMzJ6IG0xLjUzNiAxNTQuMTEyYy0yNS4wODggMC00NS41NjgtMjAuNDgtNDYuMDgtNDYuMDgtMC41MTItMjUuNiAyMC40OC00Ni4wOCA0Ni4wOC00Ni4wOHM0Ni4wOCAyMC45OTIgNDYuMDggNDYuMDhjLTAuNTEyIDI1LjYtMjAuOTkyIDQ2LjA4LTQ2LjA4IDQ2LjA4eiIgZmlsbD0iI0ZGNkEwMCIgcC1pZD0iNDM4NCIvPjwvc3ZnPg==;" parent="1" vertex="1">
          <mxGeometry x="-190" y="110" width="50" height="50" as="geometry" />
        </mxCell>
        <mxCell id="ojBkOqh7XkBdngWomWC0-3" value="" style="shape=image;verticalLabelPosition=bottom;labelBackgroundColor=default;verticalAlign=top;aspect=fixed;imageAspect=0;image=data:image/svg+xml,PHN2ZyB4bWxucz0iaHR0cDovL3d3dy53My5vcmcvMjAwMC9zdmciIHhtbG5zOnhsaW5rPSJodHRwOi8vd3d3LnczLm9yZy8xOTk5L3hsaW5rIiB0PSIxNzAxMjI3NTU2Mjc1IiBjbGFzcz0iaWNvbiIgdmlld0JveD0iMCAwIDEwMjQgMTAyNCIgdmVyc2lvbj0iMS4xIiBwLWlkPSI0NTI0IiB3aWR0aD0iMjAwIiBoZWlnaHQ9IjIwMCI+PHBhdGggZD0iTTgyMS4yNDggNjkxLjJMNTEyIDg3MC40bC0zMDkuMjQ4LTE3OS4ydi01Ny4zNDRjMjEuNTA0LTguNzA0IDM2LjM1Mi0yOS42OTYgMzYuMzUyLTU1LjI5NiAwLTMxLjc0NC0yNy42NDgtNTkuOTA0LTU5LjkwNC01OS45MDRzLTU5LjkwNCAyNy42NDgtNTkuOTA0IDU5LjkwNGMwIDI1LjYgMTQuODQ4IDQ3LjEwNCAzNi4zNTIgNTUuMjk2VjcxNi44bDM1Mi4yNTYgMjAyLjc1MiA0LjA5NiAyLjA0OCAzNTQuMzA0LTIwNC44di0xNTMuNmgtNDUuMDU2djEyOHogbTQ3LjEwNC0zMDEuMDU2VjMwNy4yTDUxMiAxMDIuNCAxNTcuNjk2IDMwNy4ydjE1My42aDQ1LjA1NlYzMzIuOEw1MTIgMTUzLjZsMzA5LjI0OCAxNzkuMnY1Ny4zNDRjLTIxLjUwNCA4LjcwNC0zNi4zNTIgMjkuNjk2LTM2LjM1MiA1NS4yOTYgMCAzMS43NDQgMjcuNjQ4IDU5LjkwNCA1OS45MDQgNTkuOTA0czU5LjkwNC0yNy42NDggNTkuOTA0LTU5LjkwNGMwLTI1LjA4OC0xNC44NDgtNDYuNTkyLTM2LjM1Mi01NS4yOTZ6IiBmaWxsPSIjRkY2QTAwIiBwLWlkPSI0NTI1Ii8+PHBhdGggZD0iTTM2Mi40OTYgMzIwYy0yMy41NTItNC4wOTYtNDIuNDk2IDEyLjgtNDIuNDk2IDM2LjM1MlY1ODguOGMwIDY0IDUzLjI0OCAxMTcuMjQ4IDExNy4yNDggMTE3LjI0OGgxNDYuOTQ0YzcwLjY1NiAwIDEyOC02MS45NTIgMTE5LjI5Ni0xMzQuMTQ0LTguNzA0LTYxLjk1Mi02NC0xMDQuNDQ4LTEyMy45MDQtMTA0LjQ0OGgtNTMuMjQ4Yy02LjY1NiAwLTEwLjc1Mi00LjA5Ni0xMC43NTItMTAuNzUyVjM2MC40NDhjMC0xNi44OTYtMTIuOC0zNC4zMDQtMjkuNjk2LTM4LjQtMjMuNTUyLTQuMDk2LTQyLjQ5NiAxMi44LTQyLjQ5NiAzNi4zNTJ2OTguMzA0YzAgNi4xNDQtNC4wOTYgMTAuNzUyLTEwLjc1MiAxMC43NTJoLTI5LjY5NmMtNi4xNDQgMC0xMC43NTItNC4wOTYtMTAuNzUyLTEwLjc1MlYzNjAuNDQ4YzAuNTEyLTIxLjUwNC0xMi4yODgtMzguNC0yOS42OTYtNDAuNDQ4eiBtMjQ1Ljc2IDIzNC40OTZjMTYuODk2IDAgMjkuNjk2IDEyLjggMjkuNjk2IDI5LjY5NnMtMTIuOCAyOS42OTYtMjkuNjk2IDI5LjY5Ni0yOS42OTYtMTIuOC0yOS42OTYtMjkuNjk2IDEyLjI4OC0yOS42OTYgMjkuNjk2LTI5LjY5NnogbS05NC4yMDggMGMxNi44OTYgMCAyOS42OTYgMTIuOCAyOS42OTYgMjkuNjk2cy0xMi44IDI5LjY5Ni0yOS42OTYgMjkuNjk2LTI5LjY5Ni0xMi44LTI5LjY5Ni0yOS42OTYgMTIuOC0yOS42OTYgMjkuNjk2LTI5LjY5NnogbS05OC4zMDQgMGMxNi44OTYgMCAyOS42OTYgMTIuOCAyOS42OTYgMjkuNjk2cy0xMi44IDI5LjY5Ni0yOS42OTYgMjkuNjk2LTI5LjY5Ni0xMi44LTI5LjY5Ni0yOS42OTYgMTIuOC0yOS42OTYgMjkuNjk2LTI5LjY5NnoiIGZpbGw9IiNGRjZBMDAiIHAtaWQ9IjQ1MjYiLz48L3N2Zz4=;" parent="1" vertex="1">
          <mxGeometry x="-195" y="310" width="60" height="60" as="geometry" />
        </mxCell>
        <mxCell id="ojBkOqh7XkBdngWomWC0-4" style="edgeStyle=orthogonalEdgeStyle;rounded=0;orthogonalLoop=1;jettySize=auto;html=1;exitX=0.5;exitY=1;exitDx=0;exitDy=0;" parent="1" source="kPjU0U6EXAjWoEkIdYuT-30" target="kPjU0U6EXAjWoEkIdYuT-30" edge="1">
          <mxGeometry relative="1" as="geometry" />
        </mxCell>
        <mxCell id="ojBkOqh7XkBdngWomWC0-5" value="MQ" style="rounded=0;whiteSpace=wrap;html=1;dashed=1;fontFamily=Helvetica;fontSize=16;strokeColor=none;fillColor=#f8cecc;fontColor=#FFFFFF;" parent="1" vertex="1">
          <mxGeometry x="-200" y="370" width="70" height="20" as="geometry" />
        </mxCell>
        <mxCell id="ojBkOqh7XkBdngWomWC0-11" value="" style="shape=image;verticalLabelPosition=bottom;labelBackgroundColor=default;verticalAlign=top;aspect=fixed;imageAspect=0;image=data:image/svg+xml,PHN2ZyB4bWxucz0iaHR0cDovL3d3dy53My5vcmcvMjAwMC9zdmciIHhtbG5zOnhsaW5rPSJodHRwOi8vd3d3LnczLm9yZy8xOTk5L3hsaW5rIiB0PSIxNzAxMjI3NzIwMTIzIiBjbGFzcz0iaWNvbiIgdmlld0JveD0iMCAwIDEwMjQgMTAyNCIgdmVyc2lvbj0iMS4xIiBwLWlkPSI0NjY2IiB3aWR0aD0iMjAwIiBoZWlnaHQ9IjIwMCI+PHBhdGggZD0iTTUxNC4wNDggMzk4Ljg0OGMtNjEuOTUyIDAtMTEzLjE1MiA0OS4xNTItMTEzLjE1MiAxMTEuMTA0czQ5LjE1MiAxMTMuMTUyIDExMS4xMDQgMTEzLjE1MmMxMC43NTIgMCAyMy41NTItMi4wNDggMzQuMzA0LTQuMDk2IDQ3LjEwNC0xNC44NDggNzguODQ4LTU3LjM0NCA4MC44OTYtMTA2LjQ5NiAwLTYyLjQ2NC01MS4yLTExMy42NjQtMTEzLjE1Mi0xMTMuNjY0eiBtNTkuOTA0IDE0NC44OTZjLTE2Ljg5NiAzNC4zMDQtNTkuOTA0IDQ3LjEwNC05MS42NDggMjcuNjQ4LTIzLjU1Mi0xMi44LTM2LjM1Mi0zNi4zNTItMzYuMzUyLTYxLjk1MiAwLTM4LjQgMzEuNzQ0LTY4LjA5NiA2OC4wOTYtNjguMDk2IDEwLjc1MiAwIDIxLjUwNCAyLjA0OCAzMS43NDQgOC43MDQgMzIuMjU2IDE5LjQ1NiA0NS4wNTYgNTkuOTA0IDI4LjE2IDkzLjY5NnogbTEzNC4xNDQgMjM3LjA1NmMwIDQuMDk2LTIuMDQ4IDQuMDk2LTQuMDk2IDguNzA0IDQwLjQ0OC0zMS43NDQgNzYuOC03MC42NTYgMTAyLjQtMTE1LjIgNC4wOTYtMjkuNjk2IDYuNjU2LTYxLjk1MiAyLjA0OC05My42OTYtOC43MDQtNTMuMjQ4LTI5LjY5Ni0xMDQuNDQ4LTY2LjA0OC0xNDQuODk2LTI5LjY5Ni0zNC4zMDQtNzIuNzA0LTU3LjM0NC0xMTcuMjQ4LTY2LjA0OCAyNy42NDggMTkuNDU2IDQ5LjE1MiA0Ny4xMDQgNTkuOTA0IDgwLjg5NiAyMS41MDQgMTYuODk2IDM2LjM1MiAzNi4zNTIgNDkuMTUyIDU5LjkwNCAyMS41MDQgNDUuMDU2IDI3LjY0OCA5MS42NDggMjMuNTUyIDE0MC44LTExLjI2NCA0Ni4wOC0yOC4xNiA4OS4wODgtNDkuNjY0IDEyOS41MzZ6IiBmaWxsPSIjRkY2QTAwIiBwLWlkPSI0NjY3Ii8+PHBhdGggZD0iTTY1MC43NTIgNzcwLjA0OGM0NC41NDQtNDkuMTUyIDY4LjA5Ni0xMTcuMjQ4IDU5LjkwNC0xODMuMjk2LTIuMDQ4LTIzLjU1Mi04LjcwNC00Ny4xMDQtMjEuNTA0LTY2LjA0OC00LjA5NiA0MC40NDgtMTIuOCA3Mi43MDQtMjcuNjQ4IDkxLjY0OGgyLjA0OGMwIDYuMTQ0IDAgMTQuODQ4LTQuMDk2IDIxLjUwNC04LjcwNCA1Ny4zNDQtNDIuNDk2IDExMS4xMDQtOTEuNjQ4IDE0Mi44NDgtNTcuMzQ0IDM2LjM1Mi0xMjMuOTA0IDUzLjI0OC0xOTIgNDcuMTA0IDUzLjI0OCAyNS42IDExMy4xNTIgMzQuMzA0IDE3MC40OTYgMjUuNiAzOC40LTE5LjQ1NiA3NC43NTItNDUuMDU2IDEwNC40NDgtNzkuMzZ6IiBmaWxsPSIjRkY2QTAwIiBwLWlkPSI0NjY4Ii8+PHBhdGggZD0iTTE3NS4xMDQgNTQ4LjM1MmM0LjA5NiA1Ny4zNDQgMjUuNiAxMTMuMTUyIDU5LjkwNCAxNTcuNjk2IDguNzA0IDYuNjU2IDE4Ljk0NCAxMi44IDI5LjY5NiAxOS40NTYgNDUuMDU2IDI3LjY0OCA5My42OTYgNDIuNDk2IDE0Ny40NTYgNDcuMTA0IDIxLjUwNCAwIDQyLjQ5Ni0yLjA0OCA2NC02LjE0NCA0NS4wNTYtMTAuNzUyIDgzLjQ1Ni0zNi4zNTIgMTEzLjE1Mi03Mi43MDQgNC4wOTYtOC43MDQgMTAuNzUyLTE2Ljg5NiAxNi44OTYtMjUuNi0xMi44IDYuMTQ0LTI3LjY0OCAxMi44LTQyLjQ5NiAxNi44OTYtMTQuODQ4IDQuMDk2LTMxLjc0NCA4LjcwNC00OS4xNTIgNi4xNDRoLTQuMDk2Yy00NS4wNTYgMjcuNjQ4LTEwMC4zNTIgMzYuMzUyLTE1MS41NTIgMTkuNDU2LTc1LjI2NC0yMS41MDQtMTQzLjM2LTg1LjUwNC0xODMuODA4LTE2Mi4zMDR6IiBmaWxsPSIjRkY2QTAwIiBwLWlkPSI0NjY5Ii8+PHBhdGggZD0iTTMyMCAyMzIuNDQ4Yy01My4yNDggMjEuNTA0LTkzLjY5NiA2Ni4wNDgtMTA4LjU0NCAxMjEuMzQ0LTIuMDQ4IDIxLjUwNC00LjA5NiA0MC40NDgtNC4wOTYgNjEuOTUyIDAgNTUuMjk2IDE0Ljg0OCAxMDguNTQ0IDQwLjQ0OCAxNTcuNjk2IDM0LjMwNCA1Ny4zNDQgOTMuNjk2IDk2LjI1NiAxNTkuNzQ0IDEwMi40aDI1LjZjLTMxLjc0NC0xNC44NDgtNTcuMzQ0LTM4LjQtNzQuNzUyLTY4LjA5Ni00NS4wNTYtMjEuNTA0LTc2LjgtNjEuOTUyLTg5LjYtMTA4LjU0NC0xMC43NTItNDkuMTUyLTEwLjc1Mi0xMDAuMzUyIDIuMDQ4LTE0OS41MDQgMTAuNzUyLTQyLjQ5NiAyNS42LTgwLjg5NiA0OS4xNTItMTE3LjI0OHogbTM4LjQgMzczLjI0OGMwIDIuNTYgMCAyLjU2IDAgMHoiIGZpbGw9IiNGRjZBMDAiIHAtaWQ9IjQ2NzAiLz48cGF0aCBkPSJNMzI2LjY1NiAzMjguNzA0Yy0yNS42IDU5LjkwNC0yNS42IDEyOCAyLjA0OCAxODcuOTA0LTIuMDQ4LTM4LjQgOC43MDQtNzYuOCAzMS43NDQtMTA2LjQ5NiA0LjA5Ni0zOC40IDIxLjUwNC03NC43NTIgNDUuMDU2LTEwNC40NDggMjkuNjk2LTM2LjM1MiA3MC42NTYtNjQgMTE1LjItNzYuOCA0Ny4xMDQtMTIuOCA5Ni4yNTYtMTYuODk2IDE0NC44OTYtMTQuODQ4aDE0Ljg0OGMtNDkuMTUyLTIxLjUwNC0xMDAuMzUyLTM2LjM1Mi0xNTMuNi00Mi40OTYtMzYuMzUyIDEwLjc1Mi02OC4wOTYgMjMuNTUyLTk4LjMwNCA0Mi40OTZDMzg0IDI0MS4xNTIgMzQ5LjY5NiAyODEuNiAzMjYuNjU2IDMyOC43MDR6IiBmaWxsPSIjRkY2QTAwIiBwLWlkPSI0NjcxIi8+PHBhdGggZD0iTTg0NC44IDUwMy4yOTZjMi4wNDggNC4wOTYgNC4wOTYgOC43MDQgNC4wOTYgMTIuOHYtNi4xNDRjMC0yNS42LTYuMTQ0LTExMy4xNTItNDAuNDQ4LTE1Ny42OTYtMjEuNTA0LTIxLjUwNC00OS4xNTItNDAuNDQ4LTc2LjgtNTEuMi01OS45MDQtMjkuNjk2LTEyOC0zOC40LTE5Mi0yMS41MDQtNDQuNTQ0IDEwLjc1Mi04Mi45NDQgMzYuMzUyLTExMS4xMDQgNzAuNjU2IDEwLjc1Mi02LjE0NCAyMS41MDQtMTAuNzUyIDMxLjc0NC0xMi44IDguNzA0LTIuMDQ4IDE2Ljg5Ni00LjA5NiAyNS42LTQuMDk2IDYuMTQ0LTIuMDQ4IDE0Ljg0OC0yLjA0OCAyMS41MDQtMi4wNDggOC43MDQgMCAxNi44OTYgMCAyNS42IDIuMDQ4IDIxLjUwNC02LjE0NCA0Mi40OTYtMTAuNzUyIDY2LjA0OC0xMC43NTIgNTkuOTA0IDIuMDQ4IDExNS4yIDIzLjU1MiAxNTcuNjk2IDY0IDIzLjU1MiAyMS41MDQgNDUuMDU2IDQ1LjA1NiA1OS45MDQgNzIuNzA0IDEzLjMxMiAxMi4yODggMjIuMDE2IDI3LjEzNiAyOC4xNiA0NC4wMzJ6TTQ3Ny42OTYgMTI4VjQyLjQ5NmMtMjI4LjM1MiAxNi44OTYtNDExLjY0OCAxOTQuMDQ4LTQzNS4yIDQyMi40SDEyOEMxNTEuNTUyIDI4My42NDggMjk2LjQ0OCAxNDQuODk2IDQ3Ny42OTYgMTI4eiIgZmlsbD0iI0ZGNkEwMCIgcC1pZD0iNDY3MiIvPjxwYXRoIGQ9Ik04OTMuOTUyIDQ2NC44OTZoODUuNTA0Yy0yMy41NTItMjIxLjY5Ni0xOTguMTQ0LTM5OC44NDgtNDIwLjM1Mi00MjIuNFYxMjhjMTc0LjU5MiAyMy41NTIgMzEzLjM0NCAxNjIuMzA0IDMzNC44NDggMzM2Ljg5NnpNMTI4IDU0Ni4zMDRINDIuNDk2YzE2Ljg5NiAyMzIuNDQ4IDIwMi43NTIgNDE4LjMwNCA0MzUuMiA0MzUuMlY4OTZjLTE4NS4zNDQtMTYuODk2LTMzMi44LTE2NC4zNTItMzQ5LjY5Ni0zNDkuNjk2eiBtNzY4IDBjLTE2Ljg5NiAxODEuMjQ4LTE1NS42NDggMzI2LjY1Ni0zMzYuODk2IDM0Ny42NDh2ODUuNTA0YzIyNi4zMDQtMjMuNTUyIDQwNS41MDQtMjA0LjggNDIyLjQtNDMzLjE1Mkg4OTZ6IiBmaWxsPSIjRkY2QTAwIiBwLWlkPSI0NjczIi8+PC9zdmc+;" parent="1" vertex="1">
          <mxGeometry x="-195" y="420" width="60" height="60" as="geometry" />
        </mxCell>
        <mxCell id="ojBkOqh7XkBdngWomWC0-12" value="MSE" style="rounded=0;whiteSpace=wrap;html=1;dashed=1;fontFamily=Helvetica;fontSize=16;strokeColor=none;fillColor=#f8cecc;fontColor=#FFFFFF;" parent="1" vertex="1">
          <mxGeometry x="-200" y="490" width="70" height="20" as="geometry" />
        </mxCell>
        <mxCell id="ojBkOqh7XkBdngWomWC0-13" value="" style="shape=image;verticalLabelPosition=bottom;labelBackgroundColor=default;verticalAlign=top;aspect=fixed;imageAspect=0;image=data:image/svg+xml,PHN2ZyB4bWxucz0iaHR0cDovL3d3dy53My5vcmcvMjAwMC9zdmciIHhtbG5zOnhsaW5rPSJodHRwOi8vd3d3LnczLm9yZy8xOTk5L3hsaW5rIiB0PSIxNzAxMjI3OTUwMjYyIiBjbGFzcz0iaWNvbiIgdmlld0JveD0iMCAwIDEwMjQgMTAyNCIgdmVyc2lvbj0iMS4xIiBwLWlkPSI0ODE1IiB3aWR0aD0iMjAwIiBoZWlnaHQ9IjIwMCI+PHBhdGggZD0iTTgwNy45MzYgNzkwLjAxNmwtMjIuMDE2LTMyLjc2OCA2Ni4wNDgtMzguNFYzMjQuMDk2bC0xOTcuNjMyLTExNS4yIDE4Ljk0NC0zMi43NjhMODkwLjM2OCAzMDIuMDh2NDM4Ljc4NGwtODIuNDMyIDQ5LjE1MnpNMTY2LjQgNTYyLjE3NkgxMjhWMzA0LjY0TDUxNy4xMiA4NS41MDRsODcuNTUyIDQ5LjE1Mi0xOS40NTYgMzUuODQtNjguNjA4LTQwLjk2TDE2Ni40IDMyNi42NTZ2MjM1LjUyek01MDguOTI4IDk2MEwxMjggNzQzLjQyNFY2MzYuNDE2aDM4LjR2ODQuOTkybDM0Mi41MjggMTk0LjU2IDIyMi4yMDgtMTI1Ljk1MiAxOS40NTYgMzIuNzY4TDUwOC45MjggOTYweiBtLTI0LjU3Ni02MTkuNTJsLTg0Ljk5Mi00OS42NjR2LTMwLjIwOEw1MTIgMTk0LjU2bDEwOS41NjggNjYuMDQ4djMwLjIwOGwtODIuNDMyIDQ5LjE1Mi0yLjU2IDMwLjIwOEw1MTIgMzUzLjc5MmwtMjcuNjQ4IDE2LjM4NFYzNDAuNDh6TTY1Ny40MDggNTM3LjZ2LTk4LjMwNGwtODQuOTkyLTQ5LjE1MnYtMzAuMjA4bDEwOS41NjgtNjIuOTc2IDExMi42NCA2Mi45NzZWNDg4Ljk2bC0xMTIuNjQgNjIuOTc2LTI0LjU3Ni0xNC4zMzZ6TTM5OS4zNiA3ODQuMzg0VjY1OC40MzJsMjQuNTc2LTE2LjM4NCA4NC45OTIgNDkuMTUyIDg3LjU1Mi00OS4xNTIgMjQuNTc2IDEzLjgyNHYxMjkuMDI0bC0xMTIuNjQgNjYuMDQ4LTEwOS4wNTYtNjYuNTZ6IG0yNTguMDQ4LTQ5LjE1MnYtOTguODE2bC0yNy42NDgtMTYuMzg0IDI3LjY0OC0xMy44MjRWNTc2bDI0LjU3NiAxNi4zODQgODQuOTkyLTQ5LjE1MiAyNy42NDggMTMuODI0VjY4Ni4wOGwtMTEyLjY0IDYyLjk3Ni0yNC41NzYtMTMuODI0ek0zOTkuMzYgNTg3LjI2NFY0NTguMjRMNTEyIDM5NS4yNjRsMTA5LjU2OCA2Mi45NzZ2MTI5LjAyNGwtMTEyLjY0IDYyLjk3Ni0xMDkuNTY4LTYyLjk3NnogbS0xNzUuNjE2IDk4LjMwNGwyLjU2LTEyOS4wMjQgMjQuNTc2LTEzLjgyNCA4NC45OTIgNDkuMTUyIDI3LjY0OC0xNi4zODR2MzAuMjA4bDI3LjY0OCAxNi4zODQtMjcuNjQ4IDEzLjgyNHY5OC44MTZsLTI3LjY0OCAxMy44MjQtMTEyLjEyOC02Mi45NzZ6IG0wLTE5Ny4xMmwyLjU2LTEyOS4wMjQgMTEyLjY0LTYyLjk3NiAxMDkuNTY4IDYyLjk3NnYzMC4yMDhsLTg0Ljk5MiA0OS4xNTJ2OTUuNzQ0bC0yNy42NDggMTYuMzg0LTExMi4xMjgtNjIuNDY0eiIgZmlsbD0iI0ZGNkEwMCIgcC1pZD0iNDgxNiIvPjwvc3ZnPg==;" parent="1" vertex="1">
          <mxGeometry x="-195" width="60" height="60" as="geometry" />
        </mxCell>
        <mxCell id="ojBkOqh7XkBdngWomWC0-14" value="" style="shape=image;verticalLabelPosition=bottom;labelBackgroundColor=default;verticalAlign=top;aspect=fixed;imageAspect=0;image=data:image/svg+xml,PHN2ZyB4bWxucz0iaHR0cDovL3d3dy53My5vcmcvMjAwMC9zdmciIHhtbG5zOnhsaW5rPSJodHRwOi8vd3d3LnczLm9yZy8xOTk5L3hsaW5rIiB0PSIxNzAxMjI4MDMxNDQwIiBjbGFzcz0iaWNvbiIgdmlld0JveD0iMCAwIDEwMjQgMTAyNCIgdmVyc2lvbj0iMS4xIiBwLWlkPSI0OTU2IiB3aWR0aD0iMjAwIiBoZWlnaHQ9IjIwMCI+PHBhdGggZD0iTTI0My4yIDM2NC41NDRsLTIuMDQ4IDMwMS4wNTYgMjYwLjA5NiAxNTMuNiAyNjQuNzA0LTE0Ny40NTYgMi4wNDgtMzAwLjU0NC0yNjIuMTQ0LTE1My42LTI2Mi42NTYgMTQ2Ljk0NHogbTI0MS4xNTIgNDAxLjQwOGwtMjA2Ljg0OC0xMTkuMjk2IDIuMDQ4LTI0My4yTDQ4Ni40IDUxMmwtMi4wNDggMjUzLjk1MnogbTI0My4yLTExNS4ybC0yMDYuODQ4IDExNS4yIDIuMDQ4LTI1NiAyMDYuODQ4LTEwNC40NDgtMi4wNDggMjQ1LjI0OHpNNTA1Ljg1NiA0ODAuMjU2TDMwNy4yIDM3NS4yOTZsMjAwLjcwNC0xMTUuMiAxOTguMTQ0IDExNy4yNDhjMCAwLjUxMi0yMDAuNzA0IDEwMi45MTItMjAwLjE5MiAxMDIuOTEyeiIgZmlsbD0iI0ZGNkEwMCIgcC1pZD0iNDk1NyIvPjxwYXRoIGQ9Ik02NjUuNiAxNTEuNTUyTDYzMS4yOTYgMjA0LjhsMjA4Ljg5NiAxMjUuOTUyLTQuMDk2IDM4MS45NTItNjQgMzguNCAzMS43NDQgNTUuMjk2IDkzLjY5Ni01NS4yOTYgNC4wOTYtNDU2LjcwNHYtMi4wNDhMNjY1LjYgMTUxLjU1MnpNMTcwLjQ5NiAzMjIuMDQ4bDMzNi44OTYtMTg5Ljk1MiA2Ni4wNDggNDAuNDQ4IDMxLjc0NC01My4yNDgtOTUuMjMyLTU3LjM0NGgtMi4wNDhsLTM5OS4zNiAyMjEuNjk2LTIuMDQ4IDI3Ny41MDRoNjEuOTUybDIuMDQ4LTIzOS4xMDR6IG0zMzAuNzUyIDU4Mi42NTZsLTMzNC44NDgtMTk2LjA5NiAyLjA0OC03Ni44LTYxLjk1Mi0yLjA0OC0yLjA0OCAxMTUuMiAzOTQuNzUyIDIzMi40NDhoMi4wNDhsMjQxLjE1Mi0xMzYuNzA0IDIuMDQ4LTIuMDQ4LTMxLjc0NC01NS4yOTYtMjExLjQ1NiAxMjEuMzQ0eiIgZmlsbD0iI0ZGNkEwMCIgcC1pZD0iNDk1OCIvPjwvc3ZnPg==;" parent="1" vertex="1">
          <mxGeometry x="-195" y="200" width="60" height="60" as="geometry" />
        </mxCell>
        <mxCell id="ojBkOqh7XkBdngWomWC0-20" value="ahas" style="rounded=0;whiteSpace=wrap;html=1;dashed=1;fontFamily=Helvetica;fontSize=16;strokeColor=none;fillColor=#f8cecc;fontColor=#FFFFFF;" parent="1" vertex="1">
          <mxGeometry x="-200" y="260" width="70" height="20" as="geometry" />
        </mxCell>
        <mxCell id="ojBkOqh7XkBdngWomWC0-38" value="" style="rounded=0;whiteSpace=wrap;html=1;strokeWidth=1;dashed=1;fillColor=#e3c800;fontColor=#000000;strokeColor=#B09500;" parent="1" vertex="1">
          <mxGeometry x="-930" y="450" width="670" height="150" as="geometry" />
        </mxCell>
        <mxCell id="ojBkOqh7XkBdngWomWC0-42" value="" style="shape=image;verticalLabelPosition=bottom;labelBackgroundColor=default;verticalAlign=top;aspect=fixed;imageAspect=0;image=data:image/svg+xml,PHN2ZyB4bWxucz0iaHR0cDovL3d3dy53My5vcmcvMjAwMC9zdmciIHhtbG5zOnhsaW5rPSJodHRwOi8vd3d3LnczLm9yZy8xOTk5L3hsaW5rIiB0PSIxNzAxMjI4NjY3NDgwIiBjbGFzcz0iaWNvbiIgdmlld0JveD0iMCAwIDEwMjQgMTAyNCIgdmVyc2lvbj0iMS4xIiBwLWlkPSI1MzUwIiB3aWR0aD0iMjAwIiBoZWlnaHQ9IjIwMCI+PHBhdGggZD0iTTk1OS43NDQgNjAyLjE2bDAuMjU2IDAuMDY0djEwMS45NTJjMCAxMC4yNC0xMC43NTIgMjEuNDQtMzUuMDcyIDM1Ljg0LTIyLjk3NiAxMy42OTYtOTEuOTY4IDQ3LjYxNi0xNjMuMzI4IDgyLjYyNGwtMzUuNzEyIDE3LjUzNmMtNjUuMDg4IDMyLTEyNi4wMTYgNjIuMjA4LTE0OS4xODQgNzYuMDMyLTUyLjggMzEuMzYtODIuMDQ4IDMxLjEwNC0xMjMuNzEyIDguMzItNDEuNi0yMi43Mi0zMDUuMjgtMTQ0LjI1Ni0zNTIuNzA0LTE3MC4xNzYtMjMuNzQ0LTEyLjk5Mi0zNi4yMjQtMjMuOTM2LTM2LjIyNC0zNC4yNHYtMTAzLjQyNGMwLjM4NCAxMC4zNjggMTIuNDggMjEuMjQ4IDM2LjIyNCAzNC4yNEMxNDcuNzc2IDY3Ni44IDQxMS4zMjggNzk4LjQgNDUyLjk5MiA4MjEuMTJjNDEuNjY0IDIyLjc4NCA3MC45MTIgMjMuMDQgMTIzLjcxMi04LjMyIDUyLjY3Mi0zMS4zNiAzMDAuNDE2LTE0Ny43MTIgMzQ4LjIyNC0xNzYuMTI4IDIzLjIzMi0xMy44MjQgMzQuNTYtMjQuNzY4IDM0Ljg4LTM0LjU2bC0wLjA2NCAwLjA2NHogbTAtMTY4LjU3NmgwLjE5MnYxMDEuOTUyYzAgMTAuMjQtMTAuNzUyIDIxLjQ0LTM1LjA3MiAzNS45NjgtNDcuODA4IDI4LjQxNi0yOTUuNTUyIDE0NC43NjgtMzQ4LjIyNCAxNzYuMTI4LTUyLjggMzEuMzYtODIuMDQ4IDMxLjA0LTEyMy43MTIgOC4zMi00MS42LTIyLjcyLTMwNS4yOC0xNDQuMzItMzUyLjcwNC0xNzAuMjRDNzYuNDggNTcyLjggNjQgNTYxLjkyIDY0IDU1MS41MzZ2LTEwMy40MjRjMC4zODQgMTAuMjQgMTIuNDggMjEuMjQ4IDM2LjIyNCAzNC4xNzYgNDcuNDg4IDI1LjkyIDMxMS4wNCAxNDcuNTIgMzUyLjcwNCAxNzAuMjQgNDEuNjY0IDIyLjcyIDcwLjkxMiAyMy4wNCAxMjMuNzEyLTguMzIgNTIuNjcyLTMxLjM2IDMwMC40MTYtMTQ3LjcxMiAzNDguMjI0LTE3Ni4xOTIgMjMuMTY4LTEzLjgyNCAzNC41Ni0yNC43MDQgMzQuODgtMzQuNDMyek00NjIuNjU2IDgxLjg0YzU1LjM2LTIyLjcyIDc0LjU2LTIzLjQ4OCAxMjEuNjY0LTMuNzc2IDQ3LjE2OCAxOS43NzYgMjkzLjM3NiAxMzEuNjQ4IDMzOS45NjggMTUxLjEwNCAyNCAxMC4wNDggMzUuODQgMTkuMiAzNS40NTYgMjkuNjMySDk2MHYxMDEuOTUyYzAgMTAuMTc2LTEwLjgxNiAyMS40NC0zNS4wNzIgMzUuOTA0Qzg3Ny4wNTYgNDI1LjA3MiA2MjkuMzc2IDU0MS40NCA1NzYuNjQgNTcyLjhjLTUyLjczNiAzMS4zNi04MS45ODQgMzEuMTA0LTEyMy42NDggOC4zMi00MS42NjQtMjIuNjU2LTMwNS4yOC0xNDQuMzItMzUyLjc2OC0xNzAuMjRDNzYuNTQ0IDM5Ny45MzYgNjQgMzg3LjA1NiA2NCAzNzYuNjg4VjI3My4yOGMtMC4zMi0xMC4zMDQgMTEuMDcyLTE5Ljk2OCAzNC4zNjgtMzAuNDY0IDQ2LjY1Ni0yMC44IDMwOC44LTEzOC4yNCAzNjQuMjg4LTE2MC44OTZ2LTAuMDY0eiBtMTI5Ljc5MiAyMzguNGwtMjA3LjU1MiAzNi4zNTIgMTQ0LjgzMiA2OC42MDggNjIuNzItMTA0Ljk2eiBtMTI4LjcwNC0xMTMuNmwtMTM1LjkzNiA2MS40NCAxMjIuNjg4IDU1LjM2IDEzLjM3Ni01Ljk1MiAxMjIuNzUyLTU1LjQyNC0xMjIuODgtNTUuNDI0eiBtLTM5Mi4zMiAxMy40NGMtNjEuMjQ4IDAtMTEwLjkxMiAyMi4wMTYtMTEwLjkxMiA0OS4xNTIgMCAyNy4wNzIgNDkuNjY0IDQ5LjA4OCAxMTAuOTc2IDQ5LjA4OHMxMTAuOTEyLTIxLjk1MiAxMTAuOTEyLTQ5LjA4OC00OS42LTQ5LjA4OC0xMTAuOTEyLTQ5LjA4OGwtMC4wNjQtMC4wNjR6IG0xMzQuNjU2LTEwMS44ODhsMjAuMDk2IDQyLjMwNC02Ni44OCAyNy41MiA4OS42IDkuMjE2IDI4LjAzMiA1My4yNDggMTcuNDA4LTQ3Ljc0NCA3Ny42MzItOS4yMTYtNjAuMTYtMjUuNzI4IDE2LTQzLjcxMi01OS4xMzYgMjIuMDgtNjIuNTkyLTI3Ljk2OHoiIGZpbGw9IiNEODJBMUYiIHAtaWQ9IjUzNTEiLz48L3N2Zz4=;" parent="1" vertex="1">
          <mxGeometry x="-668" y="480" width="60" height="60" as="geometry" />
        </mxCell>
        <mxCell id="ojBkOqh7XkBdngWomWC0-43" value="redis集群" style="rounded=0;whiteSpace=wrap;html=1;dashed=1;fontFamily=Helvetica;fontSize=16;strokeColor=none;fillColor=#e3c800;fontColor=#FFFFFF;" parent="1" vertex="1">
          <mxGeometry x="-670" y="550" width="70" height="20" as="geometry" />
        </mxCell>
        <mxCell id="ojBkOqh7XkBdngWomWC0-45" value="" style="shape=image;verticalLabelPosition=bottom;labelBackgroundColor=default;verticalAlign=top;aspect=fixed;imageAspect=0;image=data:image/svg+xml,PHN2ZyB4bWxucz0iaHR0cDovL3d3dy53My5vcmcvMjAwMC9zdmciIHhtbG5zOnhsaW5rPSJodHRwOi8vd3d3LnczLm9yZy8xOTk5L3hsaW5rIiB0PSIxNzAxMjI4NDk2MDAxIiBjbGFzcz0iaWNvbiIgdmlld0JveD0iMCAwIDExOTEgMTAyNCIgdmVyc2lvbj0iMS4xIiBwLWlkPSI1MjQ1IiB3aWR0aD0iMjMyLjYxNzE4NzUiIGhlaWdodD0iMjAwIj48cGF0aCBkPSJNNTg0LjE5MiAyMi4wMTZoLTQ1NS42OHY0MTUuNzQ0bDcxLjY4LTQ1LjA1NmMtMTQuMzM2LTI4LjE2LTkuNzI4LTYzLjQ4OCAxMy44MjQtODcuMDQgMjkuMTg0LTI5LjE4NCA3Ny4zMTItMjkuMTg0IDEwNi40OTYgMGw3LjE2OCA3LjE2OCA1MS4yLTMyLjI1NmMyMC40OC0xNy40MDggNzUuNzc2LTM1Ljg0IDEwMi40LTM3LjM3NmgxMTEuNjE2bDU0LjI3Mi0yMS41MDRjMTMuODI0LTIuNTYgMjguMTYgMC41MTIgMzkuOTM2IDguMTkybDczLjIxNiA0OC42NHM5Ni4yNTYtMjUuNiAxMTYuNzM2LTE1LjM2YzYuNjU2IDMuMDcyIDIyLjAxNiA1MC42ODggMjQuNTc2IDg2LjUyOCAxLjAyNCAxOC40MzItNy42OCAzNS44NC0yMy4wNCA0Ni4wOGwtNi4xNDQgNC4wOTYtMTAuMjQgNjAuOTI4cy0xOTIuNTEyIDE0MS44MjQtMjg0LjE2IDMxNC4zNjhjLTM2Ljg2NCA2OS42MzItNjcuMDcyIDE1Mi4wNjQtOTAuMTEyIDIyNi4zMDRoOTYuNzY4YzI3MC4zMzYgMCA0ODkuOTg0LTIxOS4xMzYgNDg5Ljk4NC00ODkuOTg0LTAuNTEyLTI2OS44MjQtMjIwLjE2LTQ4OS40NzItNDkwLjQ5Ni00ODkuNDcyeiIgZmlsbD0iI0ZGNkEwMCIgcC1pZD0iNTI0NiIvPjxwYXRoIGQ9Ik00ODIuMzA0IDMzOC45NDRsMTEwLjA4LTEwLjI0LTIyLjUyOC0yNy42NDhjLTcuMTY4LTguNzA0LTE5Ljk2OC0xMC4yNC0yOS4xODQtMy41ODRsLTU4LjM2OCA0MS40NzJ6TTc0Mi40IDMxNy40NGw2LjY1NiAyMC40OGMzLjU4NCAxMC4yNCAxMi4yODggMTcuOTIgMjMuNTUyIDE4Ljk0NGw2My40ODggNy42OCAzNy4zNzYtMjkuNjk2YzguMTkyLTYuNjU2IDEwLjc1Mi0xNy40MDggNy4xNjgtMjYuNjI0bC0xMC43NTItMjYuNjI0Yy0yLjA0OC00LjYwOC03LjE2OC03LjE2OC0xMS43NzYtNi4xNDRsLTEwOC41NDQgMjguNjcyYy02LjE0NCAxLjUzNi05LjIxNiA3LjY4LTcuMTY4IDEzLjMxMnpNMjM3LjA1NiA0MjYuNDk2Yy0xMC43NTItMTAuNzUyLTIzLjA0LTIwLjk5Mi0zMC43Mi0zNC4zMDQtMTUuODcyLTI4LjY3Mi03LjY4LTY1LjAyNCAxNi44OTYtODYuMDE2IDI1LjYtMjEuNTA0IDYyLjQ2NC0yMC40OCA4Ny41NTIgMCAxMC4yNCA4LjE5MiAxOS40NTYgMTguNDMyIDI4LjY3MiAyNy42NDggNS42MzIgNS42MzIgMTQuODQ4LTMuMDcyIDguNzA0LTguNzA0LTE1LjM2LTE1LjM2LTI5LjY5Ni0zMi43NjgtNDkuNjY0LTQxLjQ3Mi0yOS4xODQtMTIuMjg4LTYzLjQ4OC02LjE0NC04Ni41MjggMTQuODQ4LTIwLjQ4IDE4Ljk0NC0zMC4yMDggNDcuNjE2LTI1LjA4OCA3NS4yNjQgNS4xMiAyNi42MjQgMjMuMDQgNDMuMDA4IDQwLjk2IDYxLjQ0IDUuNjMyIDUuNjMyIDE0Ljg0OC0zLjA3MiA5LjIxNi04LjcwNHpNNzEyLjcwNCAyNjkuMzEybDYuNjU2IDE5LjQ1NiA0MC40NDgtMTAuMjQtMzkuOTM2LTE1Ljg3MmMtNC4wOTYtMS41MzYtOC43MDQgMi41Ni03LjE2OCA2LjY1NnoiIGZpbGw9IiNGRjZBMDAiIHAtaWQ9IjUyNDciLz48cGF0aCBkPSJNNDU4Ljc1MiAxMDAxLjk4NGw0Ny42MTYtNDcuNjE2YzEuMDI0LTMuNTg0IDIuNTYtNy4xNjggMy41ODQtMTAuNzUybC01OC4zNjggNTguMzY4aDcuMTY4ek00MzIuMTI4IDEwMDEuOTg0bDg4LjU3Ni04OC41NzZjMS41MzYtMy41ODQgMi41Ni03LjY4IDQuMDk2LTExLjI2NEw0MjQuOTYgMTAwMS45ODRoNy4xNjh6TTQwNi41MjggMTAwMS45ODRsMTI5LjAyNC0xMjkuMDI0YzEuNTM2LTQuMDk2IDMuMDcyLTcuNjggNC42MDgtMTEuNzc2TDM5OS4zNiAxMDAxLjk4NGg3LjE2OHpNMzgwLjkyOCAxMDAxLjk4NGwxNzIuMDMyLTE3Mi4wMzJjMi4wNDgtNC42MDggNC4wOTYtOS4yMTYgNi4xNDQtMTMuMzEyTDM3My43NiAxMDAxLjk4NGg3LjE2OHpNMzU0LjgxNiAxMDAxLjk4NGwyMjQuNzY4LTIyNC43NjhjMy41ODQtNi4xNDQgNy4xNjgtMTIuMjg4IDEwLjc1Mi0xNy45MmwtMjQzLjIgMjQzLjIgNy42OC0wLjUxMnpNNjQwIDY4NC4wMzJsLTMxNy45NTIgMzE3Ljk1Mmg3LjE2OGwzMDIuMDgtMzAyLjA4TTI5MS4zMjggMTAwMS45ODRoNy4xNjhMODcwLjQgNDMwLjA4bDIuNTYtOS43Mjh6TTg0MC43MDQgNDIzLjkzNkwyNjIuNjU2IDEwMDEuOTg0aDcuMTY4TDg1NC4wMTYgNDE3LjI4Yy00LjA5NiAyLjA0OC04LjcwNCA0LjA5Ni0xMy4zMTIgNi42NTZ6TTc5Ni42NzIgNDM3LjI0OEwyMzIuNDQ4IDEwMDEuOTg0aDcuMTY4TDgwNi45MTIgNDM0LjE3NmMtMy4wNzIgMS4wMjQtNi42NTYgMi4wNDgtMTAuMjQgMy4wNzJ6TTc0My40MjQgNDYwLjhMMjI4LjM1MiA5NzUuODcyYy0zLjA3MiA1LjEyLTUuNjMyIDEwLjI0LTguMTkyIDE1LjM2TDc1Ny4yNDggNDU0LjE0NGMtNC42MDggMi4wNDgtOS4yMTYgNC42MDgtMTMuODI0IDYuNjU2ek02ODIuNDk2IDQ5Mi4wMzJsLTQxMi42NzIgNDEyLjY3MmMtMy41ODQgNi4xNDQtNy42OCAxMi4yODgtMTEuMjY0IDE4LjQzMmw0MzkuODA4LTQzOS44MDhjLTUuNjMyIDIuNTYtMTAuNzUyIDUuNjMyLTE1Ljg3MiA4LjcwNHoiIGZpbGw9IiNGRjZBMDAiIHAtaWQ9IjUyNDgiLz48cGF0aCBkPSJNMzIzLjU4NCA1NzIuOTI4bDAuNTEyIDEuMDI0IDAuNTEyLTAuNTEyeiIgZmlsbD0iI0ZGNkEwMCIgcC1pZD0iNTI0OSIvPjxwYXRoIGQ9Ik0zMjQuNjA4IDU3My40NGwtMC41MTIgMC41MTIgMy4wNzIgNC42MDggMi4wNDgtMi4wNDh6TTM0My41NTIgNTg1LjcyOGwtNy42OCA4LjE5MiAyLjU2IDQuNjA4TDM0OC4xNiA1ODguOHpNMzYyLjQ5NiA1OTguMDE2bC0xNS4zNiAxNS4zNiAyLjU2IDQuNjA4IDE3LjQwOC0xNi44OTZ6TTM4MS45NTIgNjEwLjgxNmwtMjIuNTI4IDIxLjUwNGMxLjAyNCAxLjUzNiAyLjU2IDIuNTYgMy41ODQgMy41ODRsMjMuMDQtMjMuMDRjLTEuMDI0LTAuNTEyLTIuNTYtMS41MzYtNC4wOTYtMi4wNDh6TTQwMi45NDQgNjIwLjAzMmwtMjcuMTM2IDI3LjEzNmMxLjUzNiAxLjAyNCAzLjA3MiAxLjUzNiA0LjYwOCAyLjU2bDI4LjE2LTI4LjE2Yy0xLjUzNi0xLjAyNC0zLjU4NC0xLjAyNC01LjYzMi0xLjUzNnpNNDQxLjM0NCA2MTkuMDA4Yy0yLjU2IDEuMDI0LTUuMTIgMS41MzYtOC4xOTIgMi4wNDhsLTM0LjgxNiAzNC44MTZjMi4wNDggMC41MTIgNC4wOTYgMC41MTIgNi4xNDQgMS4wMjRsMzguNC0zOC40LTEuNTM2IDAuNTEyek00NzcuNjk2IDYwNy4yMzJsLTQ3LjEwNCA0Ny4xMDRjMy41ODQtMS4wMjQgNy42OC0yLjU2IDExLjI2NC00LjA5Nmw0Ni41OTItNDYuNTkyLTEwLjc1MiAzLjU4NHpNNTIzLjI2NCA1OTMuNDA4bC0yNy42NDggMjcuMTM2IDE2LjM4NC05LjIxNiAyMi4wMTYtMjEuNTA0ek01NjMuNzEyIDU4MC42MDhsLTQuNjA4IDQuNjA4IDEzLjMxMi03LjE2OHoiIGZpbGw9IiNGRjZBMDAiIHAtaWQ9IjUyNTAiLz48L3N2Zz4=;" parent="1" vertex="1">
          <mxGeometry x="-514" y="480" width="69.9" height="60" as="geometry" />
        </mxCell>
        <mxCell id="ojBkOqh7XkBdngWomWC0-46" value="" style="shape=image;verticalLabelPosition=bottom;labelBackgroundColor=default;verticalAlign=top;aspect=fixed;imageAspect=0;image=data:image/svg+xml,PHN2ZyB4bWxucz0iaHR0cDovL3d3dy53My5vcmcvMjAwMC9zdmciIHhtbG5zOnhsaW5rPSJodHRwOi8vd3d3LnczLm9yZy8xOTk5L3hsaW5rIiB0PSIxNzAxMjI4ODE4MTcyIiBjbGFzcz0iaWNvbiIgdmlld0JveD0iMCAwIDEwMjQgMTAyNCIgdmVyc2lvbj0iMS4xIiBwLWlkPSI1ODA5IiB3aWR0aD0iMjAwIiBoZWlnaHQ9IjIwMCI+PHBhdGggZD0iTTYyMC41NDQgMTcwLjQ5NmMtMTU1LjY0OCAwLTI4NS42OTYgMTA3LjAwOC0zMjEuMDI0IDI1MS45MDQtMy4wNzIgMC02LjE0NCAwLTkuNzI4LTAuNTEyLTExMy4xNTIgMC0yMDQuOCA5MS42NDgtMjA0LjggMjA0LjggMCA1NC4yNzIgMjEuNTA0IDEwNi40OTYgNTkuOTA0IDE0NC4zODQgMzguNCAzOC40IDkwLjYyNCA1OS45MDQgMTQ0Ljg5NiA1OS45MDQgNTQuMjcyIDAgMTA2LjQ5Ni0yMS41MDQgMTQ0Ljg5Ni02MC40MTYgMzIuMjU2LTMyLjI1NiA1MC4xNzYtNzUuMjY0IDU1LjI5Ni0xMjIuODhsLTc0LjI0LTUuNjMyYy0xNi44OTYtMi4wNDgtMjIuMDE2LTE0Ljg0OC0xMS43NzYtMjguMTZsMTI1LjQ0LTE1NS4xMzZjMTAuMjQtMTMuMzEyIDI0LjA2NC0xMS43NzYgMzAuNzIgMy41ODRsNzEuMTY4IDE3NC4wOGM2LjY1NiAxNS44NzItMS41MzYgMjYuNjI0LTE4LjQzMiAyNC41NzZsLTU1LjI5Ni01LjEyYy02LjE0NCA1Ny44NTYtMzIuMjU2IDEwOC41NDQtNjguNjA4IDE0OC45OTIgNDEuNDcyIDE3LjkyIDg2LjAxNiAyNy4xMzYgMTMxLjU4NCAyNy4xMzYgMTgyLjc4NCAwIDMzMC43NTItMTQ3Ljk2OCAzMzAuNzUyLTMzMC43NTIgMC0xODIuNzg0LTE0Ny45NjgtMzMwLjc1Mi0zMzAuNzUyLTMzMC43NTJ6IiBmaWxsPSIjRkY2QTAwIiBwLWlkPSI1ODEwIi8+PC9zdmc+;" parent="1" vertex="1">
          <mxGeometry x="-350" y="480" width="60" height="60" as="geometry" />
        </mxCell>
        <mxCell id="ojBkOqh7XkBdngWomWC0-47" value="polardb集群" style="rounded=0;whiteSpace=wrap;html=1;dashed=1;fontFamily=Helvetica;fontSize=16;strokeColor=none;fillColor=#e3c800;fontColor=#FFFFFF;" parent="1" vertex="1">
          <mxGeometry x="-525.05" y="550" width="100" height="20" as="geometry" />
        </mxCell>
        <mxCell id="ojBkOqh7XkBdngWomWC0-48" value="OSS" style="rounded=0;whiteSpace=wrap;html=1;dashed=1;fontFamily=Helvetica;fontSize=16;strokeColor=none;fillColor=#e3c800;fontColor=#FFFFFF;" parent="1" vertex="1">
          <mxGeometry x="-369.99999999999994" y="550" width="100" height="20" as="geometry" />
        </mxCell>
        <mxCell id="ojBkOqh7XkBdngWomWC0-49" value="" style="shape=image;verticalLabelPosition=bottom;labelBackgroundColor=default;verticalAlign=top;aspect=fixed;imageAspect=0;image=data:image/svg+xml,PHN2ZyB4bWxucz0iaHR0cDovL3d3dy53My5vcmcvMjAwMC9zdmciIHhtbG5zOnhsaW5rPSJodHRwOi8vd3d3LnczLm9yZy8xOTk5L3hsaW5rIiB0PSIxNzAxMjI5MDg0OTQxIiBjbGFzcz0iaWNvbiIgdmlld0JveD0iMCAwIDEwMjQgMTAyNCIgdmVyc2lvbj0iMS4xIiBwLWlkPSI1OTU0IiB3aWR0aD0iMjAwIiBoZWlnaHQ9IjIwMCI+PHBhdGggZD0iTTI0My43MTIgMjQzLjcxMnYxNTcuNjk2TDE5MC40NjQgNDMwLjA4VjE5MC40NjRoMjM4LjU5MmwtMjguNjcyIDUzLjI0OEgyNDMuNzEyeiBtMCA1MzYuNTc2aDE1Ni42NzJsMjguNjcyIDUzLjI0OEgxOTAuNDY0di0yMzguNTkybDUzLjI0OCAyOC42NzJ2MTU2LjY3MnogbTUzNi41NzYgMHYtMTU2LjY3Mmw1My4yNDgtMjguNjcydjIzOC41OTJoLTIzOS4xMDRsMjguMTYtNTMuMjQ4aDE1Ny42OTZ6IG0wLTUzNi41NzZoLTE1Ni42NzJsLTI4LjY3Mi01My4yNDhoMjM4LjU5MnYyMzguMDhMNzgwLjI4OCAzOTkuMzZWMjQzLjcxMnogbS0yNDYuMjcyIDY2LjU2YTQ3Ljc2OTYgNDcuNzY5NiAwIDAgMC00NC4wMzIgMGwtMTE3Ljc2IDYxLjk1Mkw1MTIgMTA2LjQ5NmwxMzkuNzc2IDI2NS43MjgtMTE3Ljc2LTYxLjk1MnogbTAgNDAzLjQ1NmwxMTcuNzYtNjEuOTUyLTEzOS43NzYgMjY1LjcyOC0xMzkuNzc2LTI2NS43MjggMTE3Ljc2IDYxLjk1MmMxMy44MjQgNy4xNjggMzAuMjA4IDcuMTY4IDQ0LjAzMiAweiBtMTc5LjcxMi0xNzkuNzEyYzcuMTY4LTEzLjgyNCA3LjE2OC0zMC4yMDggMC00NC4wMzJsLTYxLjk1Mi0xMTcuNzYgMjY1LjcyOCAxMzkuNzc2LTI2NS43MjggMTM5Ljc3NiA2MS45NTItMTE3Ljc2eiBtLTQwMy40NTYtNDQuMDMyYTQ3Ljc2OTYgNDcuNzY5NiAwIDAgMCAwIDQ0LjAzMmw2MS45NTIgMTE3Ljc2TDEwNi40OTYgNTEybDI2NS43MjgtMTM5Ljc3Ni02MS45NTIgMTE3Ljc2eiIgZmlsbD0iI0ZGNkEwMCIgcC1pZD0iNTk1NSIvPjwvc3ZnPg==;" parent="1" vertex="1">
          <mxGeometry x="-827" y="480" width="60" height="60" as="geometry" />
        </mxCell>
        <mxCell id="ojBkOqh7XkBdngWomWC0-50" value="mongodb" style="rounded=0;whiteSpace=wrap;html=1;dashed=1;fontFamily=Helvetica;fontSize=16;strokeColor=none;fillColor=#e3c800;fontColor=#FFFFFF;" parent="1" vertex="1">
          <mxGeometry x="-832" y="550" width="70" height="20" as="geometry" />
        </mxCell>
        <mxCell id="ojBkOqh7XkBdngWomWC0-51" value="数据层" style="rounded=0;whiteSpace=wrap;html=1;dashed=1;fontFamily=Helvetica;fontSize=16;strokeColor=none;fillColor=#e3c800;fontColor=#000000;" parent="1" vertex="1">
          <mxGeometry x="-930" y="450" width="80" height="40" as="geometry" />
        </mxCell>
        <mxCell id="ojBkOqh7XkBdngWomWC0-57" value="" style="shape=image;verticalLabelPosition=bottom;labelBackgroundColor=default;verticalAlign=top;aspect=fixed;imageAspect=0;image=data:image/svg+xml,PHN2ZyB4bWxucz0iaHR0cDovL3d3dy53My5vcmcvMjAwMC9zdmciIHhtbG5zOnhsaW5rPSJodHRwOi8vd3d3LnczLm9yZy8xOTk5L3hsaW5rIiB0PSIxNzAxMjI4NDk2MDAxIiBjbGFzcz0iaWNvbiIgdmlld0JveD0iMCAwIDExOTEgMTAyNCIgdmVyc2lvbj0iMS4xIiBwLWlkPSI1MjQ1IiB3aWR0aD0iMjMyLjYxNzE4NzUiIGhlaWdodD0iMjAwIj48cGF0aCBkPSJNNTg0LjE5MiAyMi4wMTZoLTQ1NS42OHY0MTUuNzQ0bDcxLjY4LTQ1LjA1NmMtMTQuMzM2LTI4LjE2LTkuNzI4LTYzLjQ4OCAxMy44MjQtODcuMDQgMjkuMTg0LTI5LjE4NCA3Ny4zMTItMjkuMTg0IDEwNi40OTYgMGw3LjE2OCA3LjE2OCA1MS4yLTMyLjI1NmMyMC40OC0xNy40MDggNzUuNzc2LTM1Ljg0IDEwMi40LTM3LjM3NmgxMTEuNjE2bDU0LjI3Mi0yMS41MDRjMTMuODI0LTIuNTYgMjguMTYgMC41MTIgMzkuOTM2IDguMTkybDczLjIxNiA0OC42NHM5Ni4yNTYtMjUuNiAxMTYuNzM2LTE1LjM2YzYuNjU2IDMuMDcyIDIyLjAxNiA1MC42ODggMjQuNTc2IDg2LjUyOCAxLjAyNCAxOC40MzItNy42OCAzNS44NC0yMy4wNCA0Ni4wOGwtNi4xNDQgNC4wOTYtMTAuMjQgNjAuOTI4cy0xOTIuNTEyIDE0MS44MjQtMjg0LjE2IDMxNC4zNjhjLTM2Ljg2NCA2OS42MzItNjcuMDcyIDE1Mi4wNjQtOTAuMTEyIDIyNi4zMDRoOTYuNzY4YzI3MC4zMzYgMCA0ODkuOTg0LTIxOS4xMzYgNDg5Ljk4NC00ODkuOTg0LTAuNTEyLTI2OS44MjQtMjIwLjE2LTQ4OS40NzItNDkwLjQ5Ni00ODkuNDcyeiIgZmlsbD0iI0ZGNkEwMCIgcC1pZD0iNTI0NiIvPjxwYXRoIGQ9Ik00ODIuMzA0IDMzOC45NDRsMTEwLjA4LTEwLjI0LTIyLjUyOC0yNy42NDhjLTcuMTY4LTguNzA0LTE5Ljk2OC0xMC4yNC0yOS4xODQtMy41ODRsLTU4LjM2OCA0MS40NzJ6TTc0Mi40IDMxNy40NGw2LjY1NiAyMC40OGMzLjU4NCAxMC4yNCAxMi4yODggMTcuOTIgMjMuNTUyIDE4Ljk0NGw2My40ODggNy42OCAzNy4zNzYtMjkuNjk2YzguMTkyLTYuNjU2IDEwLjc1Mi0xNy40MDggNy4xNjgtMjYuNjI0bC0xMC43NTItMjYuNjI0Yy0yLjA0OC00LjYwOC03LjE2OC03LjE2OC0xMS43NzYtNi4xNDRsLTEwOC41NDQgMjguNjcyYy02LjE0NCAxLjUzNi05LjIxNiA3LjY4LTcuMTY4IDEzLjMxMnpNMjM3LjA1NiA0MjYuNDk2Yy0xMC43NTItMTAuNzUyLTIzLjA0LTIwLjk5Mi0zMC43Mi0zNC4zMDQtMTUuODcyLTI4LjY3Mi03LjY4LTY1LjAyNCAxNi44OTYtODYuMDE2IDI1LjYtMjEuNTA0IDYyLjQ2NC0yMC40OCA4Ny41NTIgMCAxMC4yNCA4LjE5MiAxOS40NTYgMTguNDMyIDI4LjY3MiAyNy42NDggNS42MzIgNS42MzIgMTQuODQ4LTMuMDcyIDguNzA0LTguNzA0LTE1LjM2LTE1LjM2LTI5LjY5Ni0zMi43NjgtNDkuNjY0LTQxLjQ3Mi0yOS4xODQtMTIuMjg4LTYzLjQ4OC02LjE0NC04Ni41MjggMTQuODQ4LTIwLjQ4IDE4Ljk0NC0zMC4yMDggNDcuNjE2LTI1LjA4OCA3NS4yNjQgNS4xMiAyNi42MjQgMjMuMDQgNDMuMDA4IDQwLjk2IDYxLjQ0IDUuNjMyIDUuNjMyIDE0Ljg0OC0zLjA3MiA5LjIxNi04LjcwNHpNNzEyLjcwNCAyNjkuMzEybDYuNjU2IDE5LjQ1NiA0MC40NDgtMTAuMjQtMzkuOTM2LTE1Ljg3MmMtNC4wOTYtMS41MzYtOC43MDQgMi41Ni03LjE2OCA2LjY1NnoiIGZpbGw9IiNGRjZBMDAiIHAtaWQ9IjUyNDciLz48cGF0aCBkPSJNNDU4Ljc1MiAxMDAxLjk4NGw0Ny42MTYtNDcuNjE2YzEuMDI0LTMuNTg0IDIuNTYtNy4xNjggMy41ODQtMTAuNzUybC01OC4zNjggNTguMzY4aDcuMTY4ek00MzIuMTI4IDEwMDEuOTg0bDg4LjU3Ni04OC41NzZjMS41MzYtMy41ODQgMi41Ni03LjY4IDQuMDk2LTExLjI2NEw0MjQuOTYgMTAwMS45ODRoNy4xNjh6TTQwNi41MjggMTAwMS45ODRsMTI5LjAyNC0xMjkuMDI0YzEuNTM2LTQuMDk2IDMuMDcyLTcuNjggNC42MDgtMTEuNzc2TDM5OS4zNiAxMDAxLjk4NGg3LjE2OHpNMzgwLjkyOCAxMDAxLjk4NGwxNzIuMDMyLTE3Mi4wMzJjMi4wNDgtNC42MDggNC4wOTYtOS4yMTYgNi4xNDQtMTMuMzEyTDM3My43NiAxMDAxLjk4NGg3LjE2OHpNMzU0LjgxNiAxMDAxLjk4NGwyMjQuNzY4LTIyNC43NjhjMy41ODQtNi4xNDQgNy4xNjgtMTIuMjg4IDEwLjc1Mi0xNy45MmwtMjQzLjIgMjQzLjIgNy42OC0wLjUxMnpNNjQwIDY4NC4wMzJsLTMxNy45NTIgMzE3Ljk1Mmg3LjE2OGwzMDIuMDgtMzAyLjA4TTI5MS4zMjggMTAwMS45ODRoNy4xNjhMODcwLjQgNDMwLjA4bDIuNTYtOS43Mjh6TTg0MC43MDQgNDIzLjkzNkwyNjIuNjU2IDEwMDEuOTg0aDcuMTY4TDg1NC4wMTYgNDE3LjI4Yy00LjA5NiAyLjA0OC04LjcwNCA0LjA5Ni0xMy4zMTIgNi42NTZ6TTc5Ni42NzIgNDM3LjI0OEwyMzIuNDQ4IDEwMDEuOTg0aDcuMTY4TDgwNi45MTIgNDM0LjE3NmMtMy4wNzIgMS4wMjQtNi42NTYgMi4wNDgtMTAuMjQgMy4wNzJ6TTc0My40MjQgNDYwLjhMMjI4LjM1MiA5NzUuODcyYy0zLjA3MiA1LjEyLTUuNjMyIDEwLjI0LTguMTkyIDE1LjM2TDc1Ny4yNDggNDU0LjE0NGMtNC42MDggMi4wNDgtOS4yMTYgNC42MDgtMTMuODI0IDYuNjU2ek02ODIuNDk2IDQ5Mi4wMzJsLTQxMi42NzIgNDEyLjY3MmMtMy41ODQgNi4xNDQtNy42OCAxMi4yODgtMTEuMjY0IDE4LjQzMmw0MzkuODA4LTQzOS44MDhjLTUuNjMyIDIuNTYtMTAuNzUyIDUuNjMyLTE1Ljg3MiA4LjcwNHoiIGZpbGw9IiNGRjZBMDAiIHAtaWQ9IjUyNDgiLz48cGF0aCBkPSJNMzIzLjU4NCA1NzIuOTI4bDAuNTEyIDEuMDI0IDAuNTEyLTAuNTEyeiIgZmlsbD0iI0ZGNkEwMCIgcC1pZD0iNTI0OSIvPjxwYXRoIGQ9Ik0zMjQuNjA4IDU3My40NGwtMC41MTIgMC41MTIgMy4wNzIgNC42MDggMi4wNDgtMi4wNDh6TTM0My41NTIgNTg1LjcyOGwtNy42OCA4LjE5MiAyLjU2IDQuNjA4TDM0OC4xNiA1ODguOHpNMzYyLjQ5NiA1OTguMDE2bC0xNS4zNiAxNS4zNiAyLjU2IDQuNjA4IDE3LjQwOC0xNi44OTZ6TTM4MS45NTIgNjEwLjgxNmwtMjIuNTI4IDIxLjUwNGMxLjAyNCAxLjUzNiAyLjU2IDIuNTYgMy41ODQgMy41ODRsMjMuMDQtMjMuMDRjLTEuMDI0LTAuNTEyLTIuNTYtMS41MzYtNC4wOTYtMi4wNDh6TTQwMi45NDQgNjIwLjAzMmwtMjcuMTM2IDI3LjEzNmMxLjUzNiAxLjAyNCAzLjA3MiAxLjUzNiA0LjYwOCAyLjU2bDI4LjE2LTI4LjE2Yy0xLjUzNi0xLjAyNC0zLjU4NC0xLjAyNC01LjYzMi0xLjUzNnpNNDQxLjM0NCA2MTkuMDA4Yy0yLjU2IDEuMDI0LTUuMTIgMS41MzYtOC4xOTIgMi4wNDhsLTM0LjgxNiAzNC44MTZjMi4wNDggMC41MTIgNC4wOTYgMC41MTIgNi4xNDQgMS4wMjRsMzguNC0zOC40LTEuNTM2IDAuNTEyek00NzcuNjk2IDYwNy4yMzJsLTQ3LjEwNCA0Ny4xMDRjMy41ODQtMS4wMjQgNy42OC0yLjU2IDExLjI2NC00LjA5Nmw0Ni41OTItNDYuNTkyLTEwLjc1MiAzLjU4NHpNNTIzLjI2NCA1OTMuNDA4bC0yNy42NDggMjcuMTM2IDE2LjM4NC05LjIxNiAyMi4wMTYtMjEuNTA0ek01NjMuNzEyIDU4MC42MDhsLTQuNjA4IDQuNjA4IDEzLjMxMi03LjE2OHoiIGZpbGw9IiNGRjZBMDAiIHAtaWQ9IjUyNTAiLz48L3N2Zz4=;" parent="1" vertex="1">
          <mxGeometry x="-514" y="480" width="69.9" height="60" as="geometry" />
        </mxCell>
        <mxCell id="ojBkOqh7XkBdngWomWC0-58" value="" style="shape=image;verticalLabelPosition=bottom;labelBackgroundColor=default;verticalAlign=top;aspect=fixed;imageAspect=0;image=data:image/svg+xml,PHN2ZyB4bWxucz0iaHR0cDovL3d3dy53My5vcmcvMjAwMC9zdmciIHhtbG5zOnhsaW5rPSJodHRwOi8vd3d3LnczLm9yZy8xOTk5L3hsaW5rIiB0PSIxNzAxMjI5MDg0OTQxIiBjbGFzcz0iaWNvbiIgdmlld0JveD0iMCAwIDEwMjQgMTAyNCIgdmVyc2lvbj0iMS4xIiBwLWlkPSI1OTU0IiB3aWR0aD0iMjAwIiBoZWlnaHQ9IjIwMCI+PHBhdGggZD0iTTI0My43MTIgMjQzLjcxMnYxNTcuNjk2TDE5MC40NjQgNDMwLjA4VjE5MC40NjRoMjM4LjU5MmwtMjguNjcyIDUzLjI0OEgyNDMuNzEyeiBtMCA1MzYuNTc2aDE1Ni42NzJsMjguNjcyIDUzLjI0OEgxOTAuNDY0di0yMzguNTkybDUzLjI0OCAyOC42NzJ2MTU2LjY3MnogbTUzNi41NzYgMHYtMTU2LjY3Mmw1My4yNDgtMjguNjcydjIzOC41OTJoLTIzOS4xMDRsMjguMTYtNTMuMjQ4aDE1Ny42OTZ6IG0wLTUzNi41NzZoLTE1Ni42NzJsLTI4LjY3Mi01My4yNDhoMjM4LjU5MnYyMzguMDhMNzgwLjI4OCAzOTkuMzZWMjQzLjcxMnogbS0yNDYuMjcyIDY2LjU2YTQ3Ljc2OTYgNDcuNzY5NiAwIDAgMC00NC4wMzIgMGwtMTE3Ljc2IDYxLjk1Mkw1MTIgMTA2LjQ5NmwxMzkuNzc2IDI2NS43MjgtMTE3Ljc2LTYxLjk1MnogbTAgNDAzLjQ1NmwxMTcuNzYtNjEuOTUyLTEzOS43NzYgMjY1LjcyOC0xMzkuNzc2LTI2NS43MjggMTE3Ljc2IDYxLjk1MmMxMy44MjQgNy4xNjggMzAuMjA4IDcuMTY4IDQ0LjAzMiAweiBtMTc5LjcxMi0xNzkuNzEyYzcuMTY4LTEzLjgyNCA3LjE2OC0zMC4yMDggMC00NC4wMzJsLTYxLjk1Mi0xMTcuNzYgMjY1LjcyOCAxMzkuNzc2LTI2NS43MjggMTM5Ljc3NiA2MS45NTItMTE3Ljc2eiBtLTQwMy40NTYtNDQuMDMyYTQ3Ljc2OTYgNDcuNzY5NiAwIDAgMCAwIDQ0LjAzMmw2MS45NTIgMTE3Ljc2TDEwNi40OTYgNTEybDI2NS43MjgtMTM5Ljc3Ni02MS45NTIgMTE3Ljc2eiIgZmlsbD0iI0ZGNkEwMCIgcC1pZD0iNTk1NSIvPjwvc3ZnPg==;" parent="1" vertex="1">
          <mxGeometry x="-827" y="480" width="60" height="60" as="geometry" />
        </mxCell>
        <mxCell id="ojBkOqh7XkBdngWomWC0-60" value="" style="shape=image;verticalLabelPosition=bottom;labelBackgroundColor=default;verticalAlign=top;aspect=fixed;imageAspect=0;image=data:image/svg+xml,PHN2ZyB4bWxucz0iaHR0cDovL3d3dy53My5vcmcvMjAwMC9zdmciIHhtbG5zOnhsaW5rPSJodHRwOi8vd3d3LnczLm9yZy8xOTk5L3hsaW5rIiB0PSIxNzAxMjMzNDU1NDkwIiBjbGFzcz0iaWNvbiIgdmlld0JveD0iMCAwIDEwMjQgMTAyNCIgdmVyc2lvbj0iMS4xIiBwLWlkPSI2MDk1IiB3aWR0aD0iMjAwIiBoZWlnaHQ9IjIwMCI+PHBhdGggZD0iTTg5NiA3NTguMjcydi0wLjUxMmwtMi41Ni0yLjU2LTcuNjgtNy42OGMtNDEuNDcyLTQxLjk4NC01MC42ODgtNTMuNzYtNTAuNjg4LTUzLjc2IDM1Ljg0LTU5LjkwNCA1NC4yNzItMTI4IDU0Ljc4NC0xOTcuNjMyIDAtMjE1LjA0LTE3NS4xMDQtMzg5LjYzMi0zOTEuNjgtMzg5LjYzMi0yMTYuMDY0IDAtMzkxLjY4IDE3NC41OTItMzkxLjY4IDM4OS42MzJTMjgyLjExMiA4ODUuNzYgNDk4LjE3NiA4ODUuNzZjNzIuNzA0IDAgMTQwLjI4OC0xOS45NjggMTk4LjY1Ni01NC4yNzJsNTMuNzYgNTIuMjI0YzIuNTYgMi41NiA0LjYwOCA1LjEyIDcuMTY4IDcuMTY4bDMuMDcyIDMuMDcyIDEuMDI0IDAuNTEyYzQxLjk4NCAzMi43NjggMTAyLjQgMjUuMDg4IDEzNC42NTYtMTYuMzg0IDI4LjE2LTM1LjMyOCAyNy42NDgtODQuOTkyLTAuNTEyLTExOS44MDh6TTQ5OC4xNzYgNzg4LjQ4QzMzNS44NzIgNzg4LjQ4IDIwNC44IDY1Ny40MDggMjA0LjggNDk2LjEyOHMxMzEuNTg0LTI5Mi4zNTIgMjkzLjM3Ni0yOTIuMzUyYzE2Mi4zMDQgMCAyOTMuMzc2IDEzMC41NiAyOTMuMzc2IDI5Mi4zNTJTNjYwLjQ4IDc4OC40OCA0OTguMTc2IDc4OC40OHogbTExNy4yNDgtNDE0LjIwOEgzODcuNTg0Yy0xNi4zODQgMC0zMS43NDQgMTIuMjg4LTMxLjc0NCAyNS42czEzLjMxMiAyNC4wNjQgMjkuNjk2IDI0LjA2NGwyMzAuNC0wLjUxMmMxNi4zODQgMCAyOS42OTYtOC4xOTIgMjkuNjk2LTIxLjUwNCAwLTEzLjgyNC0xMy44MjQtMjcuNjQ4LTMwLjIwOC0yNy42NDh6IG0wIDIwMy4yNjRIMzc5LjM5MmMtMTMuODI0IDAtMjUuMDg4IDE0LjMzNi0yNS4wODggMjUuMDg4IDAgMTAuNzUyIDExLjI2NCAyMy41NTIgMjUuMDg4IDIzLjU1MmgyMzYuMDMyYzEzLjgyNCAwIDI4LjE2LTEwLjc1MiAyOC4xNi0yMS41MDQgMC41MTItMTAuNzUyLTE0LjMzNi0yNi42MjQtMjguMTYtMjcuMTM2eiBtMC05Ny4yOGwtMjMwLjkxMi0wLjUxMmMtMTYuMzg0IDAtMjkuNjk2IDEwLjc1Mi0yOS42OTYgMjQuMDY0czE2LjM4NCAyNS42IDMyLjc2OCAyNS42aDIyNy4zMjhjMTYuMzg0IDAgMjkuNjk2LTEwLjc1MiAyOS42OTYtMjQuMDY0cy0xMi44LTI1LjA4OC0yOS4xODQtMjUuMDg4eiIgZmlsbD0iI0ZGNkEwMCIgcC1pZD0iNjA5NiIvPjwvc3ZnPg==;" parent="1" vertex="1">
          <mxGeometry x="-195" y="530" width="60" height="60" as="geometry" />
        </mxCell>
        <mxCell id="ojBkOqh7XkBdngWomWC0-61" value="SLS" style="rounded=0;whiteSpace=wrap;html=1;dashed=1;fontFamily=Helvetica;fontSize=16;strokeColor=none;fillColor=#f8cecc;fontColor=#FFFFFF;" parent="1" vertex="1">
          <mxGeometry x="-200" y="600" width="70" height="20" as="geometry" />
        </mxCell>
      </root>
    </mxGraphModel>
  </diagram>
</mxfile>
